<mxfile modified="2022-05-02T02:06:42.411Z" host="app.diagrams.net" agent="5.0 (Windows NT 10.0; Win64; x64) AppleWebKit/537.36 (KHTML, like Gecko) Chrome/100.0.4896.127 Safari/537.36 Edg/100.0.1185.50" etag="Bd6uB4X5VYUqBvdXThrG" compressed="false" version="17.5.0" type="google">
  <diagram id="L3lJipPcEUNtGVVh9hjP" name="Agreements/Principles/Categories">
    <mxGraphModel grid="1" page="1" gridSize="10" guides="1" tooltips="1" connect="1" arrows="1" fold="1" pageScale="1" pageWidth="827" pageHeight="1169" math="0" shadow="0">
      <root>
        <mxCell id="ywRExsjG84Ru5Ja8rlE9-0" />
        <mxCell id="eMEh0mS3tXG04RpdwaX1-3" value="Diagram" style="" parent="ywRExsjG84Ru5Ja8rlE9-0" />
        <mxCell id="0VUtr1JfN3488HUorTQe-3" value="Enterprise" style="rounded=0;whiteSpace=wrap;html=1;comic=0;strokeColor=#000000;fillColor=none;fontSize=11;align=center;fontColor=#000000;recursiveResize=0;container=1;collapsible=0;arcSize=12;" vertex="1" parent="eMEh0mS3tXG04RpdwaX1-3">
          <mxGeometry x="119.99999999999989" y="200" width="80" height="40" as="geometry" />
        </mxCell>
        <mxCell id="0VUtr1JfN3488HUorTQe-4" value="Information" style="rounded=0;whiteSpace=wrap;html=1;comic=0;strokeColor=#000000;fillColor=none;fontSize=11;align=center;fontColor=#000000;recursiveResize=0;container=1;collapsible=0;arcSize=12;" vertex="1" parent="eMEh0mS3tXG04RpdwaX1-3">
          <mxGeometry x="239.9999999999999" y="200" width="80" height="40" as="geometry" />
        </mxCell>
        <mxCell id="0VUtr1JfN3488HUorTQe-5" value="Security" style="rounded=0;whiteSpace=wrap;html=1;comic=0;strokeColor=#000000;fillColor=none;fontSize=11;align=center;fontColor=#000000;recursiveResize=0;container=1;collapsible=0;arcSize=12;" vertex="1" parent="eMEh0mS3tXG04RpdwaX1-3">
          <mxGeometry x="119.99999999999989" y="280" width="80" height="40" as="geometry" />
        </mxCell>
        <mxCell id="0VUtr1JfN3488HUorTQe-6" value="Technology" style="rounded=0;whiteSpace=wrap;html=1;comic=0;strokeColor=#000000;fillColor=none;fontSize=11;align=center;fontColor=#000000;recursiveResize=0;container=1;collapsible=0;arcSize=12;" vertex="1" parent="eMEh0mS3tXG04RpdwaX1-3">
          <mxGeometry x="479.9999999999999" y="280" width="80" height="40" as="geometry" />
        </mxCell>
        <mxCell id="0VUtr1JfN3488HUorTQe-8" value="Integration" style="rounded=0;whiteSpace=wrap;html=1;comic=0;strokeColor=#000000;fillColor=none;fontSize=11;align=center;fontColor=#000000;recursiveResize=0;container=1;collapsible=0;arcSize=12;" vertex="1" parent="eMEh0mS3tXG04RpdwaX1-3">
          <mxGeometry x="359.9999999999999" y="280" width="80" height="40" as="geometry" />
        </mxCell>
        <mxCell id="0VUtr1JfN3488HUorTQe-15" style="edgeStyle=orthogonalEdgeStyle;rounded=1;orthogonalLoop=1;jettySize=auto;html=1;entryX=0.5;entryY=0;entryDx=0;entryDy=0;startArrow=none;startFill=0;endArrow=none;endFill=0;strokeColor=#666666;fontSize=12;fontColor=#808080;" edge="1" parent="eMEh0mS3tXG04RpdwaX1-3" source="0VUtr1JfN3488HUorTQe-9" target="0VUtr1JfN3488HUorTQe-5">
          <mxGeometry relative="1" as="geometry">
            <Array as="points">
              <mxPoint x="400" y="260" />
              <mxPoint x="160" y="260" />
            </Array>
          </mxGeometry>
        </mxCell>
        <mxCell id="0VUtr1JfN3488HUorTQe-16" style="edgeStyle=orthogonalEdgeStyle;rounded=1;orthogonalLoop=1;jettySize=auto;html=1;entryX=0.5;entryY=0;entryDx=0;entryDy=0;startArrow=none;startFill=0;endArrow=none;endFill=0;strokeColor=#666666;fontSize=12;fontColor=#808080;" edge="1" parent="eMEh0mS3tXG04RpdwaX1-3" source="0VUtr1JfN3488HUorTQe-9" target="0VUtr1JfN3488HUorTQe-6">
          <mxGeometry relative="1" as="geometry">
            <Array as="points">
              <mxPoint x="400" y="260" />
              <mxPoint x="520" y="260" />
            </Array>
          </mxGeometry>
        </mxCell>
        <mxCell id="0VUtr1JfN3488HUorTQe-17" style="edgeStyle=orthogonalEdgeStyle;rounded=1;orthogonalLoop=1;jettySize=auto;html=1;entryX=0.5;entryY=0;entryDx=0;entryDy=0;startArrow=none;startFill=0;endArrow=none;endFill=0;strokeColor=#666666;fontSize=12;fontColor=#808080;" edge="1" parent="eMEh0mS3tXG04RpdwaX1-3" source="0VUtr1JfN3488HUorTQe-9" target="0VUtr1JfN3488HUorTQe-8">
          <mxGeometry relative="1" as="geometry" />
        </mxCell>
        <mxCell id="0VUtr1JfN3488HUorTQe-18" style="edgeStyle=orthogonalEdgeStyle;rounded=1;orthogonalLoop=1;jettySize=auto;html=1;entryX=0.5;entryY=0;entryDx=0;entryDy=0;startArrow=none;startFill=0;endArrow=none;endFill=0;strokeColor=#666666;fontSize=12;fontColor=#808080;" edge="1" parent="eMEh0mS3tXG04RpdwaX1-3" source="0VUtr1JfN3488HUorTQe-9" target="0VUtr1JfN3488HUorTQe-11">
          <mxGeometry relative="1" as="geometry">
            <Array as="points">
              <mxPoint x="400" y="260" />
              <mxPoint x="640" y="260" />
            </Array>
          </mxGeometry>
        </mxCell>
        <mxCell id="0VUtr1JfN3488HUorTQe-19" style="edgeStyle=orthogonalEdgeStyle;rounded=1;orthogonalLoop=1;jettySize=auto;html=1;startArrow=none;startFill=0;endArrow=none;endFill=0;strokeColor=#666666;fontSize=12;fontColor=#808080;entryX=0.5;entryY=0;entryDx=0;entryDy=0;" edge="1" parent="eMEh0mS3tXG04RpdwaX1-3" source="0VUtr1JfN3488HUorTQe-9" target="0VUtr1JfN3488HUorTQe-14">
          <mxGeometry relative="1" as="geometry">
            <Array as="points">
              <mxPoint x="400" y="260" />
              <mxPoint x="280" y="260" />
            </Array>
          </mxGeometry>
        </mxCell>
        <mxCell id="0VUtr1JfN3488HUorTQe-9" value="Architecture" style="rounded=0;whiteSpace=wrap;html=1;comic=0;strokeColor=#000000;fillColor=none;fontSize=11;align=center;fontColor=#000000;recursiveResize=0;container=1;collapsible=0;arcSize=12;" vertex="1" parent="eMEh0mS3tXG04RpdwaX1-3">
          <mxGeometry x="359.9999999999999" y="200" width="80" height="40" as="geometry" />
        </mxCell>
        <mxCell id="0VUtr1JfN3488HUorTQe-11" value="Usability" style="rounded=0;whiteSpace=wrap;html=1;comic=0;strokeColor=#000000;fillColor=none;fontSize=11;align=center;fontColor=#000000;recursiveResize=0;container=1;collapsible=0;arcSize=12;" vertex="1" parent="eMEh0mS3tXG04RpdwaX1-3">
          <mxGeometry x="599.9999999999999" y="280" width="80" height="40" as="geometry" />
        </mxCell>
        <mxCell id="0VUtr1JfN3488HUorTQe-13" value="Delivery" style="rounded=0;whiteSpace=wrap;html=1;comic=0;strokeColor=#000000;fillColor=none;fontSize=11;align=center;fontColor=#000000;recursiveResize=0;container=1;collapsible=0;arcSize=12;" vertex="1" parent="eMEh0mS3tXG04RpdwaX1-3">
          <mxGeometry x="599.9999999999999" y="200" width="80" height="40" as="geometry" />
        </mxCell>
        <mxCell id="0VUtr1JfN3488HUorTQe-14" value="Accessibility" style="rounded=0;whiteSpace=wrap;html=1;comic=0;strokeColor=#000000;fillColor=none;fontSize=11;align=center;fontColor=#000000;recursiveResize=0;container=1;collapsible=0;arcSize=12;" vertex="1" parent="eMEh0mS3tXG04RpdwaX1-3">
          <mxGeometry x="239.9999999999999" y="280" width="80" height="40" as="geometry" />
        </mxCell>
        <mxCell id="RRgW2A3pC9T4CHnNuHNT-1" value="Risk" style="rounded=0;whiteSpace=wrap;html=1;comic=0;strokeColor=#000000;fillColor=none;fontSize=11;align=center;fontColor=#000000;recursiveResize=0;container=1;collapsible=0;arcSize=12;" vertex="1" parent="eMEh0mS3tXG04RpdwaX1-3">
          <mxGeometry x="479.9999999999999" y="200" width="80" height="40" as="geometry" />
        </mxCell>
        <mxCell id="8WLEc2qEZpB5nz4jEDVl-0" value="Title/Diagram" parent="ywRExsjG84Ru5Ja8rlE9-0" />
        <mxCell id="8WLEc2qEZpB5nz4jEDVl-1" value="&lt;font style=&quot;font-size: 12px ; font-weight: normal&quot;&gt;&lt;i&gt;&lt;span&gt;Diagram: System Context -&amp;nbsp;&lt;/span&gt;Constraints - Agreements - Principles - Categories&lt;/i&gt;&lt;/font&gt;" style="text;strokeColor=none;fillColor=none;html=1;fontSize=12;fontStyle=1;verticalAlign=middle;align=left;shadow=0;glass=0;comic=0;opacity=30;fontColor=#808080;" vertex="1" parent="8WLEc2qEZpB5nz4jEDVl-0">
          <mxGeometry x="120" y="340" width="520" height="30" as="geometry" />
        </mxCell>
      </root>
    </mxGraphModel>
  </diagram>
</mxfile>
